<?xml version="1.0" standalone="no"?>
<!DOCTYPE svg PUBLIC "-//W3C//DTD SVG 20010904//EN"
 "http://www.w3.org/TR/2001/REC-SVG-20010904/DTD/svg10.dtd">
<svg version="1.0" xmlns="http://www.w3.org/2000/svg"
 width="500.000000pt" height="500.000000pt" viewBox="0 0 500.000000 500.000000"
 preserveAspectRatio="xMidYMid meet">
<metadata>
Created by potrace 1.11, written by Peter Selinger 2001-2013
</metadata>
<g transform="translate(0.000000,500.000000) scale(0.100000,-0.100000)"
fill="#000000" stroke="none">
<path d="M2026 3243 c-1 -1 -44 -3 -95 -5 -70 -3 -96 -7 -102 -18 -16 -32 -69
-221 -73 -260 -2 -22 -12 -52 -21 -67 -10 -14 -19 -40 -22 -57 -2 -17 -10 -51
-18 -76 -8 -25 -17 -72 -20 -104 -3 -33 -10 -63 -16 -66 -6 -4 -12 -18 -14
-31 -2 -13 -7 -36 -11 -52 -5 -23 -4 -26 11 -21 15 6 16 4 7 -13 -12 -22 1
-43 26 -43 11 0 13 -9 7 -37 -8 -45 -10 -47 -28 -40 -9 3 -13 15 -10 29 3 14
-2 29 -11 37 -13 11 -16 9 -20 -11 -3 -12 -10 -47 -17 -76 -10 -48 -9 -55 7
-68 18 -13 16 -14 -15 -12 -19 2 -37 10 -42 18 -4 8 -16 64 -28 125 -11 63
-26 114 -34 120 -8 6 -17 26 -19 46 -3 19 -13 49 -22 67 -9 18 -14 42 -10 56
7 31 -13 106 -32 113 -7 3 -14 14 -14 24 0 11 -7 30 -15 42 -15 24 -23 55 -24
98 -1 14 -10 36 -21 49 -11 13 -20 29 -20 37 0 7 -6 13 -12 13 -7 0 -14 12
-14 28 -3 50 -16 107 -26 113 -11 7 -406 3 -443 -4 -14 -3 -20 -12 -21 -33 0
-16 -5 -72 -10 -124 -9 -91 -10 -288 -5 -542 l3 -117 29 -5 c16 -3 43 -9 59
-12 36 -7 39 -20 5 -28 -14 -4 -24 -12 -22 -19 1 -6 -5 -10 -13 -8 -49 13 -54
8 -51 -44 2 -31 9 -54 19 -62 15 -11 15 -12 1 -13 -13 0 -15 -16 -15 -100 l0
-100 38 0 c21 0 38 -5 38 -11 0 -7 -12 -9 -32 -5 -32 6 -33 5 -34 -32 -1 -20
-3 -62 -5 -92 -4 -50 -2 -55 16 -56 11 0 29 8 40 18 12 10 35 21 53 24 27 6
32 3 38 -20 5 -23 12 -26 48 -27 22 0 51 -2 64 -3 12 -2 22 0 22 3 0 11 -41
32 -50 26 -5 -3 -12 0 -16 6 -4 8 9 10 44 8 46 -4 51 -2 55 18 3 18 -5 29 -40
53 -42 27 -93 41 -187 49 -13 1 3 16 17 16 7 0 13 12 15 28 2 16 9 27 18 27 8
0 13 -4 10 -8 -2 -4 -2 -13 2 -19 10 -15 52 -27 52 -14 0 6 15 4 36 -5 26 -11
40 -12 47 -5 8 8 7 11 -1 11 -9 0 -10 5 -2 19 21 40 4 86 -26 74 -12 -4 -12
-8 -3 -20 11 -12 5 -13 -42 -9 -37 4 -59 11 -70 25 -9 10 -26 21 -39 23 -33 4
-38 28 -6 28 14 0 26 3 26 8 -1 27 -57 53 -70 32 -5 -9 -9 -9 -14 -1 -4 6 -2
11 4 11 7 0 9 8 5 20 -7 23 7 26 25 5 6 -8 15 -14 18 -13 57 7 111 -15 123
-50 6 -17 69 -25 69 -10 0 31 -13 58 -28 58 -10 0 -6 7 11 20 24 19 26 27 26
88 -1 37 -5 73 -11 80 -7 8 -7 12 2 12 9 0 11 22 6 93 -4 50 -9 130 -12 177
-6 104 -7 107 -36 113 l-23 4 23 2 c13 0 23 8 23 19 1 9 3 33 4 52 2 19 4 54
4 78 1 29 5 42 15 42 14 0 23 -16 31 -61 3 -13 11 -26 18 -31 8 -4 14 -26 15
-52 3 -71 91 -304 111 -292 4 3 15 -3 23 -13 15 -17 14 -20 -6 -29 -19 -8 -22
-16 -18 -48 2 -22 10 -44 18 -50 7 -6 16 -28 19 -50 11 -72 17 -99 31 -119 8
-11 14 -34 14 -53 0 -20 6 -35 16 -39 9 -3 14 -13 11 -25 -3 -10 5 -49 17 -86
22 -63 25 -67 54 -68 31 0 59 -14 31 -14 -10 -1 -8 -4 4 -11 27 -16 39 2 22
34 -13 25 -12 27 6 27 11 0 22 -7 25 -15 10 -25 53 -18 64 10 10 27 37 34 37
10 0 -8 -7 -15 -15 -15 -10 0 -12 -7 -7 -27 9 -38 22 -50 37 -35 7 7 20 12 30
12 16 0 17 -3 8 -20 -9 -17 -8 -20 9 -20 14 0 22 8 26 28 4 15 11 45 17 67 5
22 10 53 9 69 0 16 6 38 14 49 8 12 15 34 15 48 0 15 5 29 11 31 9 3 17 30 45
163 2 11 7 34 10 52 3 17 12 34 19 37 12 4 20 34 29 111 6 45 24 110 41 142 8
15 15 43 15 61 0 20 6 35 16 39 8 3 13 12 10 19 -3 7 -1 26 4 41 4 15 11 42
14 59 5 29 2 31 -47 49 -40 15 -47 20 -31 25 10 4 25 5 32 3 7 -3 12 3 12 16
0 25 -3 25 45 1 39 -20 39 -20 60 0 23 22 50 26 60 10 3 -5 0 -10 -8 -10 -8 0
-17 -7 -21 -15 -3 -8 -15 -15 -26 -15 -13 0 -20 -7 -20 -18 0 -15 8 -18 45
-17 25 1 45 -2 45 -6 0 -5 -20 -20 -44 -34 -27 -16 -45 -34 -48 -49 -6 -31 8
-57 27 -50 10 4 15 0 15 -11 0 -11 -5 -15 -15 -11 -13 5 -15 -45 -16 -412 0
-229 -3 -459 -5 -509 l-5 -93 45 0 c25 0 46 4 46 9 0 5 5 22 10 36 9 24 12 26
27 14 14 -12 16 -12 9 0 -5 8 -4 16 3 21 7 4 15 22 18 40 3 19 17 45 34 61 16
15 29 34 29 44 0 23 29 75 42 75 18 0 0 -60 -24 -80 -16 -13 -18 -19 -9 -20
10 0 3 -12 -17 -33 -18 -18 -32 -43 -32 -56 0 -13 -7 -38 -16 -57 -9 -19 -14
-37 -11 -40 2 -3 38 -6 78 -7 l74 -2 0 130 c1 76 -3 133 -9 137 -6 4 -5 16 3
35 11 22 13 91 12 303 -2 151 -4 300 -6 330 -1 30 -4 128 -6 218 l-3 162 -63
0 c-66 0 -81 12 -38 32 23 10 29 20 26 41 0 4 12 7 28 7 35 0 46 15 46 60 l0
35 -153 0 c-85 0 -154 -1 -156 -2z m-913 -78 c-6 -17 -25 -15 -31 3 -2 7 5 12
17 12 14 0 19 -5 14 -15z m-56 -62 l1 -38 -19 23 c-15 19 -16 26 -6 37 19 22
23 18 24 -22z m181 -27 c-6 -17 -15 -35 -19 -40 -13 -14 -11 37 2 71 15 39 30
10 17 -31z m-348 -32 c0 -2 -9 0 -20 6 -11 6 -20 13 -20 16 0 2 9 0 20 -6 11
-6 20 -13 20 -16z m1020 -19 c0 -25 -14 -34 -24 -16 -8 12 3 41 15 41 5 0 9
-11 9 -25z m390 -25 c0 -5 -4 -10 -9 -10 -6 0 -13 5 -16 10 -3 6 1 10 9 10 9
0 16 -4 16 -10z m-1122 -17 c-2 -10 -11 -19 -20 -21 -12 -2 -15 2 -11 17 7 25
36 28 31 4z m1062 -13 c0 -5 -5 -10 -11 -10 -5 0 -7 5 -4 10 3 6 8 10 11 10 2
0 4 -4 4 -10z m-1300 -23 c0 -7 -9 -18 -20 -25 -23 -14 -26 -3 -9 29 10 20 29
17 29 -4z m220 -37 c0 -11 -4 -20 -9 -20 -5 0 -11 9 -14 20 -3 13 0 20 9 20 8
0 14 -9 14 -20z m650 0 c0 -5 -5 -10 -11 -10 -5 0 -7 5 -4 10 3 6 8 10 11 10
2 0 4 -4 4 -10z m-20 -40 c0 -20 -25 -38 -37 -26 -5 5 24 46 34 46 1 0 3 -9 3
-20z m-580 -30 c0 -5 -2 -10 -4 -10 -3 0 -8 5 -11 10 -3 6 -1 10 4 10 6 0 11
-4 11 -10z m1080 -16 c0 -2 -7 -4 -15 -4 -8 0 -15 4 -15 10 0 5 7 7 15 4 8 -4
15 -8 15 -10z m-164 -33 c-8 -13 -36 -15 -36 -3 0 4 5 13 12 20 14 14 34 0 24
-17z m-370 -58 c-8 -8 -36 5 -36 17 0 7 6 7 21 0 11 -7 18 -14 15 -17z m158
-2 c3 -5 -16 -11 -43 -15 -27 -4 -51 -12 -53 -18 -3 -7 -9 -8 -18 -3 -11 7 -4
13 25 27 43 19 81 23 89 9z m-926 -76 c13 -17 22 -21 25 -13 2 7 8 10 12 6 5
-5 6 -11 3 -14 -12 -11 -119 -31 -124 -23 -9 14 29 69 47 69 10 0 26 -11 37
-25z m432 -65 c0 -5 -8 -10 -17 -10 -15 0 -16 2 -3 10 19 12 20 12 20 0z
m-526 -45 c-3 -7 -14 -11 -25 -8 -10 3 -19 0 -19 -6 0 -5 -7 -8 -15 -5 -8 4
-15 11 -15 16 0 6 7 7 15 4 11 -4 19 3 26 22 10 25 11 26 24 9 8 -11 11 -25 9
-32z m446 35 c0 -5 -10 -10 -22 -9 -22 0 -22 1 -3 9 11 5 21 9 23 9 1 1 2 -3
2 -9z m40 -18 c0 -10 -80 -56 -86 -49 -3 2 14 16 38 30 49 30 48 30 48 19z
m300 -32 c0 -5 -2 -10 -4 -10 -3 0 -8 5 -11 10 -3 6 -1 10 4 10 6 0 11 -4 11
-10z m-221 -74 c-2 -2 -14 -9 -26 -15 -19 -10 -22 -9 -17 4 4 8 15 15 27 15
11 0 18 -2 16 -4z m371 -22 c0 -9 -5 -14 -12 -12 -18 6 -21 28 -4 28 9 0 16
-7 16 -16z m340 -4 c0 -5 -2 -10 -4 -10 -3 0 -8 5 -11 10 -3 6 -1 10 4 10 6 0
11 -4 11 -10z m-1230 -61 c0 -24 -23 -21 -28 4 -2 10 3 17 12 17 10 0 16 -9
16 -21z m814 2 c3 -5 -1 -12 -10 -15 -20 -8 -29 -1 -19 13 8 13 22 14 29 2z
m-689 -41 c3 -5 1 -10 -4 -10 -6 0 -11 5 -11 10 0 6 2 10 4 10 3 0 8 -4 11
-10z m665 -21 c0 -6 -4 -7 -10 -4 -5 3 -10 11 -10 16 0 6 5 7 10 4 6 -3 10
-11 10 -16z m-40 -45 c0 -2 -7 -4 -15 -4 -8 0 -15 4 -15 10 0 5 7 7 15 4 8 -4
15 -8 15 -10z m-12 -26 c-2 -4 6 -14 17 -22 18 -14 18 -15 3 -16 -10 0 -18 -7
-18 -15 0 -8 -7 -15 -15 -15 -14 0 -16 31 -6 78 1 2 6 2 12 0 6 -2 9 -7 7 -10z
m-52 -45 c5 -27 7 -51 6 -55 -1 -5 7 -8 17 -8 14 0 19 -6 18 -20 -1 -11 -7
-20 -14 -20 -7 0 -10 7 -7 15 9 22 -9 18 -24 -5 -15 -25 -35 -26 -30 -2 2 9
-3 22 -12 29 -13 11 -12 12 5 13 16 0 21 6 20 28 0 15 -4 30 -9 33 -11 8 0 39
13 39 5 0 13 -21 17 -47z m-78 -52 c3 -8 -1 -12 -9 -9 -7 2 -15 10 -17 17 -3
8 1 12 9 9 7 -2 15 -10 17 -17z m-8 -41 c0 -5 -5 -10 -11 -10 -5 0 -7 5 -4 10
3 6 8 10 11 10 2 0 4 -4 4 -10z m-650 -41 c13 -23 8 -31 -19 -36 -14 -2 -20 5
-23 27 -4 24 -1 30 13 30 10 0 23 -9 29 -21z m780 -9 c0 -5 -4 -10 -10 -10 -5
0 -10 5 -10 10 0 6 5 10 10 10 6 0 10 -4 10 -10z m15 -70 c3 -5 2 -10 -4 -10
-5 0 -13 5 -16 10 -3 6 -2 10 4 10 5 0 13 -4 16 -10z m440 -30 c3 -5 1 -10 -4
-10 -6 0 -11 5 -11 10 0 6 2 10 4 10 3 0 8 -4 11 -10z m-1265 -40 c0 -11 -7
-20 -15 -20 -13 0 -14 4 -5 20 6 11 13 20 15 20 3 0 5 -9 5 -20z m1245 10 c-3
-5 -11 -10 -16 -10 -6 0 -7 5 -4 10 3 6 11 10 16 10 6 0 7 -4 4 -10z m-1146
-24 c-15 -15 -28 -21 -33 -16 -13 13 12 40 36 40 19 0 19 -1 -3 -24z m27 -15
c-17 -18 -17 -20 1 -30 16 -9 15 -10 -9 -11 -20 0 -28 5 -28 18 0 22 19 42 39
42 11 0 11 -4 -3 -19z"/>
<path d="M3457 3244 c-1 -1 -36 -4 -77 -7 -41 -3 -76 -6 -76 -6 -1 -1 -2 -11
-2 -23 0 -31 -54 -301 -96 -478 -8 -35 -14 -65 -13 -66 1 -1 25 -9 52 -17 28
-9 41 -16 30 -15 -44 1 -54 -3 -60 -23 -5 -14 -12 -18 -23 -14 -34 14 -52 14
-52 0 0 -8 5 -17 11 -20 7 -5 5 -11 -4 -18 -15 -12 -79 -176 -92 -234 -8 -41
-16 -46 -42 -28 -13 9 -23 31 -27 60 -7 41 -10 45 -34 44 -46 -3 -63 1 -57 10
6 10 -9 16 -69 27 -23 4 -41 3 -45 -4 -3 -6 -19 -14 -34 -17 -23 -6 -27 -4
-27 13 0 16 8 23 34 27 29 6 35 12 41 41 6 33 13 39 44 35 7 -2 11 4 8 11 -2
7 -10 12 -18 10 -55 -13 -72 -14 -65 -4 4 6 1 21 -6 32 -11 18 -10 23 6 35 10
7 15 18 11 24 -3 7 2 11 14 11 12 0 21 -4 21 -10 0 -5 15 -16 33 -24 21 -8 40
-27 50 -49 13 -27 22 -34 37 -30 13 4 20 14 20 30 0 19 -4 24 -16 19 -13 -5
-15 -1 -9 21 13 51 12 58 -11 93 -12 19 -26 55 -29 80 -4 25 -11 65 -17 90 -6
25 -10 57 -9 72 1 16 -7 36 -19 48 -11 11 -20 30 -20 43 0 13 -5 28 -11 34 -6
6 -13 24 -15 41 -3 17 -11 51 -17 74 l-13 43 -56 5 c-37 3 -54 2 -48 -4 22
-22 8 -25 -27 -8 -53 26 -77 19 -69 -20 l6 -29 -31 22 c-16 11 -32 20 -33 18
-16 -19 -23 -52 -19 -89 11 -111 34 -205 58 -240 14 -20 25 -46 25 -57 0 -12
3 -23 8 -25 4 -1 23 -67 42 -145 18 -78 37 -140 41 -137 11 6 15 -16 14 -63
-1 -35 2 -43 16 -43 10 0 21 -4 24 -10 3 -5 -2 -10 -13 -10 -28 0 -29 -5 -19
-70 6 -39 14 -60 23 -60 9 0 14 -12 15 -32 2 -64 8 -99 20 -114 6 -8 13 -27
14 -42 4 -55 5 -61 19 -74 7 -8 16 -32 20 -54 3 -21 12 -64 21 -94 8 -30 15
-64 15 -75 0 -20 6 -21 169 -20 l170 0 15 33 c9 18 16 51 16 74 0 23 6 46 14
52 8 6 21 42 29 79 13 59 13 69 1 74 -8 3 -14 16 -14 29 0 17 -7 25 -24 30
-27 6 -60 49 -51 63 10 18 47 -2 57 -30 7 -21 17 -29 34 -29 19 0 24 7 30 35
3 19 12 39 20 43 7 4 16 27 19 52 3 24 10 47 15 50 5 3 14 28 20 54 6 27 17
54 25 60 8 7 16 41 20 91 3 44 14 95 23 115 9 19 17 42 17 51 0 8 8 23 18 33
9 10 17 24 17 32 0 12 4 12 20 4 15 -8 19 -17 14 -35 -4 -15 -2 -25 4 -25 6 0
13 -19 16 -42 9 -68 15 -122 16 -131 0 -5 4 -6 9 -2 11 6 17 -12 26 -70 3 -22
11 -44 18 -50 7 -6 11 -26 9 -47 -2 -29 0 -38 12 -38 9 0 16 -6 16 -12 1 -8 6
-6 14 5 10 13 21 16 40 11 31 -7 35 -24 6 -24 -22 0 -25 -12 -10 -41 13 -23 3
-25 -22 -2 -22 20 -23 11 -7 -68 6 -30 11 -60 12 -68 0 -8 9 -16 19 -19 13 -3
15 -8 9 -16 -7 -8 2 -61 27 -163 l37 -150 140 -1 c77 0 152 2 166 5 28 5 52
46 64 111 4 17 13 32 20 32 12 0 17 23 29 136 1 12 7 28 13 35 6 8 13 36 16
62 2 26 12 56 22 67 10 11 19 42 22 77 3 32 10 63 15 70 6 7 6 19 -1 32 -15
27 -14 30 7 24 15 -4 23 11 47 94 17 57 29 124 30 160 0 43 6 68 18 81 16 17
39 109 34 135 -1 7 -6 15 -12 19 -5 4 0 8 11 8 17 0 23 8 28 38 4 20 7 48 7
62 1 13 8 29 16 36 18 12 10 34 -13 34 -14 0 -18 17 -14 54 1 10 -4 23 -12 27
-19 12 -30 11 -22 -2 3 -6 0 -15 -7 -20 -24 -15 -37 -10 -32 12 5 19 3 20 -43
15 -27 -3 -44 -4 -38 -1 20 10 -6 61 -37 72 -34 13 -55 0 -64 -38 -4 -17 -1
-30 10 -39 15 -12 19 -12 31 5 25 37 35 45 45 39 6 -4 -2 -20 -20 -38 -17 -18
-31 -40 -31 -50 0 -14 -6 -16 -35 -12 -33 6 -35 4 -25 -13 7 -13 7 -22 0 -26
-19 -12 -10 -24 24 -30 33 -7 34 -8 24 -36 -5 -16 -14 -29 -20 -29 -6 0 -7 -8
-4 -17 4 -9 1 -20 -6 -25 -10 -6 -10 -8 0 -8 6 0 12 -9 12 -20 0 -11 -4 -20
-8 -20 -5 0 -8 -10 -8 -22 1 -35 -28 -28 -39 10 -5 17 -15 32 -21 32 -13 0
-52 -150 -61 -237 -4 -35 -10 -53 -19 -53 -8 0 -14 -11 -15 -27 0 -16 -2 -37
-4 -48 -2 -11 -6 -49 -9 -85 -8 -92 -34 -170 -57 -170 -10 0 -25 7 -33 16 -9
8 -20 12 -26 9 -5 -3 -10 -1 -10 4 0 6 4 11 9 11 11 0 14 -16 -48 241 -28 113
-52 221 -53 239 l-2 32 -63 -5 c-35 -3 -68 -9 -74 -13 -7 -4 -10 -1 -7 6 2 7
26 21 53 32 28 11 52 21 54 23 1 2 -15 59 -38 127 -22 68 -47 150 -54 183
l-14 60 -82 0 c-45 0 -83 -1 -84 -1z m-842 -54 c3 -5 2 -10 -4 -10 -5 0 -13 5
-16 10 -3 6 -2 10 4 10 5 0 13 -4 16 -10z m140 0 c3 -5 -1 -10 -9 -10 -9 0
-16 5 -16 10 0 6 4 10 9 10 6 0 13 -4 16 -10z m-200 -70 c3 -5 1 -10 -4 -10
-6 0 -11 5 -11 10 0 6 2 10 4 10 3 0 8 -4 11 -10z m155 -58 c7 -4 -23 -22 -37
-22 -7 0 -13 8 -13 18 0 9 -7 31 -16 47 l-15 30 38 -35 c21 -19 40 -36 43 -38z
m1670 19 c0 -5 -7 -17 -16 -25 -8 -9 -20 -16 -25 -16 -16 0 -10 29 9 39 22 13
32 14 32 2z m-11 -67 c2 -2 -9 -4 -26 -4 -17 0 -36 -7 -43 -15 -8 -10 -23 -13
-49 -9 -20 3 -38 7 -40 9 -2 2 9 15 25 28 28 24 29 24 79 10 27 -8 52 -17 54
-19z m-1649 -14 c0 -5 -2 -10 -4 -10 -3 0 -8 5 -11 10 -3 6 -1 10 4 10 6 0 11
-4 11 -10z m55 -76 c20 -52 14 -65 -16 -38 -29 26 -40 50 -33 68 11 29 31 17
49 -30z m653 21 c7 -7 -66 -17 -78 -10 -20 13 1 23 37 19 20 -3 39 -6 41 -9z
m952 -15 c0 -5 -7 -7 -15 -4 -8 4 -15 8 -15 10 0 2 7 4 15 4 8 0 15 -4 15 -10z
m-1772 -112 c19 -19 14 -30 -8 -18 -11 6 -20 15 -20 20 0 14 14 12 28 -2z
m1127 -38 c-3 -5 -10 -10 -16 -10 -5 0 -9 5 -9 10 0 6 7 10 16 10 8 0 12 -4 9
-10z m469 -51 c-9 -15 -34 -10 -28 5 3 8 12 12 20 9 8 -3 11 -9 8 -14z m-1484
7 c0 -9 -30 -14 -35 -6 -4 6 3 10 14 10 12 0 21 -2 21 -4z m988 -11 c10 -9
-33 -5 -48 5 -11 8 -8 9 14 6 16 -3 31 -8 34 -11z m-310 -23 c17 -12 -29 -32
-71 -32 l-32 0 30 20 c32 21 52 25 73 12z m816 2 c9 -3 16 -12 16 -20 0 -8 5
-14 10 -14 6 0 10 -7 10 -15 0 -20 -46 -20 -54 1 -7 18 -8 54 -2 54 2 0 11 -3
20 -6z m-1484 -73 c0 -10 -26 -9 -36 2 -4 4 2 7 14 7 12 0 22 -4 22 -9z m480
-106 c0 -2 -7 -5 -15 -9 -9 -3 -15 0 -15 9 0 9 6 12 15 9 8 -4 15 -7 15 -9z
m1026 -62 c-8 -8 -36 5 -36 17 0 7 6 7 21 0 11 -7 18 -14 15 -17z m-527 -49
c2 -2 -7 -4 -22 -4 -14 0 -29 5 -32 10 -6 10 42 4 54 -6z m-579 -16 c0 -13
-23 -5 -28 10 -2 7 2 10 12 6 9 -3 16 -11 16 -16z m650 -38 c22 -19 23 -22 7
-37 -11 -11 -17 -13 -17 -5 0 7 -3 11 -7 11 -22 -4 -30 3 -28 24 1 12 3 23 4
25 4 7 21 0 41 -18z m-825 -50 c3 -5 1 -10 -4 -10 -6 0 -11 5 -11 10 0 6 2 10
4 10 3 0 8 -4 11 -10z m805 -20 c0 -5 -4 -10 -10 -10 -5 0 -10 5 -10 10 0 6 5
10 10 10 6 0 10 -4 10 -10z m280 -10 c0 -5 -4 -10 -10 -10 -5 0 -10 5 -10 10
0 6 5 10 10 10 6 0 10 -4 10 -10z m-914 -21 c38 -23 36 -21 28 -43 -10 -25
-27 -19 -51 19 -35 53 -30 57 23 24z m50 -6 c-7 -7 -26 7 -26 19 0 6 6 6 15
-2 9 -7 13 -15 11 -17z m939 -13 c-3 -5 -14 -6 -25 -3 -11 3 -18 9 -15 13 3 5
14 6 25 3 11 -3 18 -9 15 -13z m-1130 -30 c18 -19 17 -20 -3 -20 -15 0 -22 6
-22 20 0 11 2 20 3 20 2 0 12 -9 22 -20z m835 -25 c-7 -9 -15 -13 -17 -11 -6
6 20 36 26 30 2 -2 -2 -10 -9 -19z m-824 -32 c-7 -7 -26 7 -26 19 0 6 6 6 15
-2 9 -7 13 -15 11 -17z m794 10 c-1 -15 -28 -43 -41 -43 -10 1 -9 4 4 14 9 7
17 18 17 25 0 6 5 11 10 11 6 0 10 -3 10 -7z m-787 -54 c-8 -8 -8 -20 -2 -36
8 -21 6 -24 -8 -21 -12 2 -19 14 -21 36 -3 28 0 32 19 32 17 0 20 -3 12 -11z
m12 -99 c3 -5 1 -10 -4 -10 -6 0 -11 5 -11 10 0 6 2 10 4 10 3 0 8 -4 11 -10z
m66 -69 c24 -20 24 -20 2 -14 -12 3 -28 11 -34 19 -17 21 5 17 32 -5z m-41
-10 c13 -26 13 -31 -5 -31 -8 0 -15 4 -15 9 0 5 -3 16 -6 25 -9 23 13 20 26
-3z"/>
<path d="M4389 3234 c-9 -11 -8 -14 5 -14 9 0 16 -7 16 -16 0 -12 6 -15 26
-10 18 5 24 3 19 -5 -5 -8 -1 -9 16 -4 56 18 39 52 -28 59 -28 2 -46 -1 -54
-10z"/>
<path d="M3150 2646 c0 -2 9 -6 20 -9 11 -3 18 -1 14 4 -5 9 -34 13 -34 5z"/>
<path d="M2915 2510 c-3 -5 1 -10 10 -10 9 0 13 5 10 10 -3 6 -8 10 -10 10 -2
0 -7 -4 -10 -10z"/>
<path d="M2931 2466 c-15 -18 -3 -46 20 -46 13 0 19 7 19 24 0 28 -24 41 -39
22z"/>
<path d="M961 2080 c9 -5 28 -6 45 0 27 8 26 8 -16 9 -32 0 -40 -2 -29 -9z"/>
<path d="M1425 1890 c-4 -6 1 -13 9 -16 19 -7 52 3 42 13 -11 12 -45 13 -51 3z"/>
<path d="M1456 1844 c-19 -19 -20 -24 -3 -24 7 0 18 9 25 20 15 24 0 27 -22 4z"/>
<path d="M1497 1843 c-4 -3 -7 -17 -7 -29 0 -16 4 -22 14 -18 8 3 13 15 11 26
-5 25 -10 30 -18 21z"/>
<path d="M1586 1829 c20 -23 24 -23 24 -5 0 7 -9 16 -21 19 -20 5 -20 5 -3
-14z"/>
</g>
</svg>
